<svg width="1510" height="411" viewBox="0 0 1510 411" fill="none" xmlns="http://www.w3.org/2000/svg">
<rect x="4.90417" y="133" width="1507.14" height="278" fill="#33909C"/>
<path d="M21.7827 410.466C222.088 410.466 376.675 410.466 596.345 410.466C615.105 150.269 116.46 402.563 35.9743 132.765L22.0171 133.023L12.0844 132.765L9.66364 133.33L7.84799 134.459L6.63754 135.589L6.03224 136.718L5.4269 138.412L5.42644 142.929L5.42573 150.269L5.42573 154.748L5.42587 402.563L5.44354 404.256L5.4436 405.95L6.65387 407.643L8.46934 409.337L10.8899 410.466L12.7054 410.466L21.7827 410.466Z" fill="#3DAFBF" fill-opacity="0.38"/>
<path d="M22.0557 411.275C222.361 411.275 147.927 411.275 367.597 411.275C425.087 294.988 252.013 217.087 394.224 133.542L22.2901 133.833L12.3574 133.574L9.93666 134.139L8.12101 135.269L6.91055 136.398L6.30525 137.527L5.69991 139.221L5.69946 143.738L5.69875 151.078L5.69875 155.557L5.6988 403.372L5.71648 405.066L5.71655 406.759L6.92686 408.453L8.74231 410.146L11.1629 411.275L12.9784 411.275L22.0557 411.275Z" fill="#33909C" fill-opacity="0.59"/>
<path d="M1495.6 133.542C1295.75 132.497 1348.05 134.687 1128.88 133.542C1252.33 219.045 1228.12 395.695 1332.21 411.484L1493 412.846L1502.91 413.156L1505.33 412.604L1507.15 411.484L1508.37 410.362L1508.98 409.236L1510.73 407.324L1511.33 402.808L1511.33 394.905L1511.33 390.953L1511.33 267.892L1511.33 143.703L1511.33 142.009L1511.33 139.751L1510.73 137.493L1509.52 135.8L1508.31 134.671L1506.49 134.106L1504.68 133.542L1495.6 133.542Z" fill="#33909C" fill-opacity="0.62"/>
<path d="M1511.33 248.135C1488.04 245.071 1465.9 230.744 1448.85 209.958C1431.8 189.172 1416 160.705 1414.51 133.541L1504.48 133.89L1506.49 134.455L1507.09 134.455L1507.7 135.019L1508.91 135.584L1510.12 136.713L1511.67 139.535L1511.33 248.135Z" fill="#4EC2D2" fill-opacity="0.3"/>
</svg>
