<svg width="644" height="295" viewBox="0 0 644 295" fill="none" xmlns="http://www.w3.org/2000/svg">
<g clip-path="url(#clip0_2_41)">
<path d="M592.067 166.62C608.012 166.62 620.938 153.694 620.938 137.749C620.938 121.804 608.012 108.878 592.067 108.878C576.122 108.878 563.195 121.804 563.195 137.749C563.195 153.694 576.122 166.62 592.067 166.62Z" fill="#F2F2F2"/>
<path d="M592.068 145.346C596.264 145.346 599.666 141.945 599.666 137.749C599.666 133.553 596.264 130.151 592.068 130.151C587.872 130.151 584.47 133.553 584.47 137.749C584.47 141.945 587.872 145.346 592.068 145.346Z" fill="#E6E6E6"/>
<path d="M590.679 137.911C593.879 140.522 594.854 144.637 594.259 148.611C593.527 152.969 591.266 156.924 587.881 159.765C584.075 163.148 579.433 165.433 574.954 167.774C570.838 169.874 566.883 172.275 563.12 174.957C548.715 185.428 537.831 200.336 531.602 216.973C525.384 233.582 523.716 252.433 528.441 269.646C530.779 278.163 535.508 287.351 544.319 290.556C551.342 293.11 560.93 291.465 564.506 284.227C568.348 276.451 562.988 267.711 556.085 263.851C547.136 258.848 536.447 262.504 528.398 267.569C519.536 273.145 512.413 281.146 503.162 286.144C498.997 288.464 494.363 289.816 489.604 290.099C485.234 290.271 480.872 289.597 476.757 288.114C468.22 285.004 460.871 279.299 455.741 271.801C449.864 263.259 447.234 252.787 446.754 242.53C445.681 219.58 454.747 198.11 462.021 176.827C465.93 165.744 468.859 154.339 470.773 142.744C472.593 131.089 473.241 119.282 472.707 107.499C472.225 97.0794 471.198 86.184 466.599 76.6679C462.555 68.3002 455.165 61.4517 445.822 59.7251C441.61 58.8985 437.246 59.3998 433.331 61.1599C431.999 61.7679 433.156 63.7329 434.482 63.128C442.75 59.356 452.523 63.0261 458.63 69.1164C465.762 76.2284 468.381 86.7309 469.544 96.4218C472.157 119.388 470.098 142.646 463.49 164.796C457.148 186.338 447.173 206.98 444.871 229.549C443.821 239.847 444.36 250.494 447.652 260.369C450.476 269.165 455.772 276.964 462.907 282.832C469.625 288.263 477.89 291.964 486.59 292.376C496.357 292.839 504.921 288.485 512.498 282.693C520.613 276.489 528.08 268.835 537.91 265.357C542.392 263.771 547.496 263.032 552.098 264.558C556.045 265.907 559.394 268.599 561.559 272.165C563.557 275.488 564.295 279.643 562.471 283.213C560.756 286.569 557.409 288.511 553.786 289.175C549.949 289.854 545.996 289.182 542.599 287.274C538.63 285.007 535.726 281.203 533.691 277.184C529.634 269.168 528.27 259.627 528.063 250.731C527.882 242.041 528.996 233.372 531.367 225.01C536.086 208.094 545.611 192.911 558.787 181.301C562.106 178.409 565.657 175.795 569.404 173.483C573.492 170.964 577.855 168.951 582.022 166.574C586.122 164.235 590.163 161.44 592.987 157.59C595.394 154.292 596.694 150.315 596.7 146.231C596.743 144.353 596.37 142.489 595.607 140.772C594.845 139.055 593.712 137.527 592.29 136.3C591.163 135.38 589.541 136.983 590.679 137.911V137.911Z" fill="#CCCCCC"/>
<path d="M321.147 270.71C331.242 277.236 342.92 280.897 354.934 281.302C354.719 281.81 354.478 282.307 354.212 282.791C352.814 285.372 350.837 287.596 348.438 289.287C345.596 291.287 342.26 292.468 338.794 292.701C335.327 292.935 331.863 292.211 328.779 290.611C325.695 289.01 323.11 286.593 321.306 283.624C319.502 280.655 318.548 277.247 318.548 273.772V270.71H321.147Z" fill="#3F3D56"/>
<path d="M392.01 271.607V273.772C392.012 277.988 390.609 282.084 388.023 285.413C385.437 288.742 381.815 291.115 377.73 292.156C373.645 293.197 369.33 292.848 365.466 291.163C361.601 289.478 358.409 286.553 356.392 282.851C356.114 282.356 355.863 281.846 355.64 281.324C356.194 281.339 356.742 281.347 357.296 281.347C369.544 281.361 381.558 277.99 392.01 271.607Z" fill="#3F3D56"/>
<path d="M417.569 42.625C416.999 42.5414 416.422 42.4882 415.845 42.4502C422.406 57.572 422.861 74.6462 417.113 90.0957C417.691 90.0274 418.261 89.9362 418.831 89.8298C424.395 88.7517 429.396 85.734 432.943 81.314C436.491 76.894 438.355 71.3585 438.204 65.6929C438.052 60.0273 435.895 54.5992 432.117 50.375C428.338 46.1507 423.183 43.4044 417.569 42.625Z" fill="#3F3D56"/>
<path d="M298.748 42.4502C298.171 42.4882 297.593 42.5414 297.023 42.625C291.409 43.4044 286.254 46.1507 282.476 50.3749C278.697 54.5992 276.54 60.0272 276.389 65.6929C276.237 71.3585 278.101 76.894 281.649 81.314C285.197 85.734 290.198 88.7517 295.762 89.8298C296.332 89.9362 296.901 90.0274 297.479 90.0957C291.732 74.6462 292.186 57.572 298.748 42.4502Z" fill="#3F3D56"/>
<path d="M417.569 42.625C411.31 27.6725 399.716 15.5805 385.04 8.69811C370.364 1.81576 353.653 0.634483 338.155 5.38378C322.656 10.1331 309.477 20.4738 301.176 34.3971C292.876 48.3203 290.047 64.832 293.24 80.7241C296.433 96.6163 305.419 110.754 318.453 120.391C331.486 130.029 347.637 134.477 363.767 132.872C379.897 131.267 394.855 123.724 405.734 111.707C416.614 99.6907 422.638 84.0592 422.637 67.8495C422.633 59.1888 420.911 50.6149 417.569 42.625ZM417.113 90.0958C411.555 105.036 400.606 117.355 386.422 124.627C372.237 131.9 355.844 133.6 340.469 129.393C325.094 125.185 311.85 115.375 303.345 101.893C294.84 88.4114 291.689 72.2343 294.513 56.5459C297.336 40.8575 305.93 26.7943 318.602 17.124C331.274 7.45383 347.107 2.87711 362.985 4.29468C378.862 5.71226 393.633 13.0214 404.392 24.7836C415.151 36.5458 421.117 51.9091 421.117 67.8495C421.115 75.4439 419.759 82.9772 417.113 90.0958V90.0958Z" fill="#3F3D56"/>
<path d="M390.727 53.034H323.867C320.341 53.034 316.959 54.4348 314.465 56.9283C311.972 59.4218 310.571 62.8037 310.571 66.3301C310.571 69.8564 311.972 73.2383 314.465 75.7318C316.959 78.2253 320.341 79.6262 323.867 79.6262H390.727C394.254 79.6262 397.635 78.2253 400.129 75.7318C402.622 73.2383 404.023 69.8564 404.023 66.3301C404.023 62.8037 402.622 59.4218 400.129 56.9283C397.635 54.4348 394.254 53.034 390.727 53.034Z" fill="#D95F49"/>
<path d="M357.297 146.107C339.434 146.115 322.285 153.112 309.515 165.602C296.746 178.092 289.371 195.084 288.968 212.941C288.565 230.799 295.166 248.105 307.359 261.159C319.552 274.212 336.368 281.976 354.212 282.79C354.934 282.828 355.663 282.851 356.393 282.851C356.696 282.866 356.993 282.866 357.297 282.866C375.432 282.866 392.825 275.662 405.648 262.838C418.472 250.015 425.676 232.622 425.676 214.486C425.676 196.351 418.472 178.958 405.648 166.135C392.825 153.311 375.432 146.107 357.297 146.107ZM392.011 271.606C381.558 277.99 369.544 281.361 357.297 281.347C356.742 281.347 356.195 281.339 355.64 281.324C355.405 281.324 355.169 281.316 354.934 281.301C338.879 280.743 323.56 274.426 311.778 263.505C299.997 252.583 292.538 237.787 290.767 221.82C288.995 205.853 293.028 189.781 302.13 176.543C311.231 163.304 324.792 153.783 340.334 149.719C355.877 145.655 372.363 147.32 386.779 154.409C401.195 161.498 412.579 173.538 418.85 188.329C425.121 203.12 425.86 219.673 420.932 234.964C416.004 250.254 405.738 263.261 392.011 271.606Z" fill="#3F3D56"/>
<path d="M405.289 197.645H375.404C373.322 197.645 371.325 196.818 369.853 195.345C368.38 193.873 367.553 191.876 367.553 189.794C367.553 187.711 368.38 185.714 369.853 184.242C371.325 182.77 373.322 181.942 375.404 181.942H405.289C407.371 181.942 409.368 182.77 410.84 184.242C412.313 185.714 413.14 187.711 413.14 189.794C413.14 191.876 412.313 193.873 410.84 195.345C409.368 196.818 407.371 197.645 405.289 197.645Z" fill="#3F3D56"/>
<path d="M377.396 193.779C379.597 193.779 381.381 191.995 381.381 189.794C381.381 187.593 379.597 185.809 377.396 185.809C375.196 185.809 373.412 187.593 373.412 189.794C373.412 191.995 375.196 193.779 377.396 193.779Z" fill="#F2F2F2"/>
<path d="M390.346 193.779C392.547 193.779 394.331 191.995 394.331 189.794C394.331 187.593 392.547 185.809 390.346 185.809C388.146 185.809 386.362 187.593 386.362 189.794C386.362 191.995 388.146 193.779 390.346 193.779Z" fill="#F2F2F2"/>
<path d="M403.296 193.779C405.497 193.779 407.281 191.995 407.281 189.794C407.281 187.593 405.497 185.809 403.296 185.809C401.096 185.809 399.312 187.593 399.312 189.794C399.312 191.995 401.096 193.779 403.296 193.779Z" fill="#33909C"/>
<path d="M125.078 290.759C131.91 284.986 136.06 275.865 134.972 266.987C133.884 258.109 127.143 249.946 118.399 248.061C109.655 246.176 99.6874 251.395 97.0316 259.936C95.57 243.469 93.8857 226.311 85.1304 212.287C77.2027 199.589 63.4718 190.503 48.5906 188.877C33.7094 187.252 18.0414 193.391 8.76054 205.137C-0.520327 216.882 -2.79271 233.958 3.70736 247.443C8.49574 257.377 17.3176 264.77 26.5608 270.784C56.0496 289.972 92.6304 296.456 127.438 291.333L125.078 290.759Z" fill="#F2F2F2"/>
<path d="M23.4764 193.731C35.7552 203.732 47.0198 214.918 57.1071 227.126C67.196 239.322 76.0782 252.468 83.629 266.379C87.8495 274.182 91.6409 282.21 94.9862 290.426C95.6683 292.098 92.9541 292.825 92.2797 291.173C86.3543 276.687 79.0234 262.816 70.3923 249.761C61.803 236.752 51.9721 224.607 41.0377 213.497C34.8532 207.216 28.328 201.28 21.4917 195.716C20.0904 194.575 22.0867 192.599 23.4764 193.731Z" fill="white"/>
<path d="M122.762 50.899C135.77 50.899 146.315 40.3539 146.315 27.3459C146.315 14.3379 135.77 3.79285 122.762 3.79285C109.754 3.79285 99.2087 14.3379 99.2087 27.3459C99.2087 40.3539 109.754 50.899 122.762 50.899Z" fill="#2F2E41"/>
<path d="M210.605 113.589C210.153 114.268 209.603 114.876 208.972 115.392C208.063 116.141 207.007 116.69 205.871 117.002C204.735 117.314 203.547 117.383 202.383 117.204C201.219 117.025 200.106 116.602 199.117 115.963C198.127 115.323 197.285 114.482 196.643 113.494C196.495 113.264 196.358 113.026 196.235 112.782L159.12 109.201C156.191 108.907 153.435 107.677 151.26 105.692C149.086 103.707 147.609 101.075 147.05 98.1844L144.943 87.0786L159.428 84.8252L162.027 93.7211L198.213 102.61C198.494 102.364 198.791 102.138 199.103 101.934C200.717 100.886 202.643 100.427 204.556 100.635C206.469 100.843 208.252 101.704 209.604 103.074C210.955 104.444 211.793 106.238 211.975 108.154C212.158 110.069 211.673 111.989 210.605 113.589L210.605 113.589Z" fill="#FFB8B8"/>
<path d="M162.917 92.3782L146.737 96.749C145.861 96.9845 144.928 96.863 144.142 96.4114C143.356 95.9598 142.782 95.2148 142.544 94.34L136.877 73.3611C136.27 71.114 136.516 68.7216 137.569 66.6454C138.621 64.5691 140.405 62.956 142.576 62.1171C144.747 61.2782 147.153 61.2729 149.327 62.1023C151.502 62.9316 153.293 64.5368 154.355 66.6084L165.068 87.5184C165.3 87.9718 165.428 88.4713 165.443 88.9805C165.457 89.4897 165.358 89.9957 165.152 90.4615C164.946 90.9273 164.638 91.3412 164.251 91.6728C163.864 92.0044 163.409 92.2454 162.917 92.3782Z" fill="#2F2E41"/>
<path d="M153.545 285.011H162.859L167.29 249.083L153.542 249.084L153.545 285.011Z" fill="#FFB8B8"/>
<path d="M180.823 293.66L151.548 293.661L151.548 282.351L169.512 282.35C172.512 282.35 175.389 283.541 177.51 285.662C179.631 287.783 180.823 290.66 180.823 293.66Z" fill="#2F2E41"/>
<path d="M70.5237 275.933L79.2383 279.223L96.0764 247.177L83.2149 242.322L70.5237 275.933Z" fill="#FFB8B8"/>
<path d="M92.9888 293.661L65.6013 283.32L69.5966 272.739L86.4026 279.084C89.209 280.144 91.4795 282.275 92.7147 285.009C93.9498 287.742 94.0485 290.855 92.9888 293.661L92.9888 293.661Z" fill="#2F2E41"/>
<path d="M153.25 276.666C152.528 276.665 151.825 276.436 151.241 276.011C150.657 275.586 150.224 274.987 150.002 274.3L126.245 200.932C126.174 200.715 126.04 200.524 125.859 200.383C125.679 200.243 125.46 200.16 125.232 200.146C125.004 200.132 124.777 200.186 124.58 200.302C124.383 200.419 124.226 200.591 124.129 200.798L91.2042 270.85C90.8476 271.608 90.2258 272.208 89.4564 272.538C88.687 272.868 87.8233 272.904 87.029 272.64L74.062 268.317C73.2384 268.041 72.5505 267.462 72.1375 266.698C71.7245 265.934 71.6173 265.041 71.8376 264.201L92.0054 187.808C94.1157 179.716 95.64 171.482 96.5666 163.171C97.9809 149.484 104.398 136.802 114.586 127.555C119.035 123.479 121.926 117.982 122.766 112.007L122.82 111.625L152.355 116.289L171.064 268.949C171.16 269.766 170.961 270.591 170.501 271.273C170.041 271.955 169.352 272.449 168.559 272.666L154.143 276.547C153.852 276.626 153.552 276.666 153.25 276.666Z" fill="#2F2E41"/>
<path d="M132.118 50.7868C142.424 50.7868 150.779 42.432 150.779 32.1259C150.779 21.8198 142.424 13.4651 132.118 13.4651C121.812 13.4651 113.457 21.8198 113.457 32.1259C113.457 42.432 121.812 50.7868 132.118 50.7868Z" fill="#FFB8B8"/>
<path d="M150.52 119.544C150.461 119.544 150.403 119.542 150.344 119.539L121.065 118.075C120.248 118.039 119.472 117.708 118.878 117.145C118.285 116.582 117.914 115.824 117.835 115.01L113.835 76.0117C113.542 73.1558 113.952 70.2716 115.029 67.6105C116.106 64.9494 117.818 62.592 120.015 60.7439C122.212 58.8957 124.827 57.6129 127.633 57.007C130.439 56.4012 133.351 56.4908 136.115 57.268H136.115C138.405 57.8951 140.538 58.9927 142.38 60.4908C162.976 77.4051 156.335 108.051 153.809 117.041C153.611 117.761 153.182 118.396 152.587 118.848C151.993 119.301 151.267 119.545 150.52 119.544Z" fill="#4EC2D2"/>
<path d="M125.049 145.73C124.233 145.73 123.423 145.609 122.643 145.369C121.516 145.028 120.474 144.452 119.585 143.68C118.696 142.907 117.98 141.956 117.485 140.887C116.989 139.819 116.725 138.658 116.709 137.48C116.693 136.303 116.927 135.135 117.394 134.054C117.503 133.803 117.626 133.557 117.761 133.319L100.184 100.435C98.8056 97.8336 98.3032 94.8571 98.751 91.9474C99.1988 89.0377 100.573 86.35 102.669 84.2832L110.749 76.3775L120.648 87.1887L114.682 94.2805L127.326 129.332C127.686 129.429 128.039 129.551 128.382 129.698C130.148 130.461 131.597 131.811 132.483 133.519C133.37 135.227 133.64 137.188 133.249 139.072C132.857 140.956 131.827 142.647 130.333 143.86C128.839 145.073 126.973 145.734 125.049 145.73L125.049 145.73Z" fill="#FFB8B8"/>
<path d="M116.292 94.2774L103.691 83.2275C103.01 82.6291 102.594 81.7851 102.535 80.8805C102.475 79.976 102.777 79.0849 103.374 78.4027L117.701 62.0637C119.236 60.3135 121.364 59.1935 123.676 58.9195C125.987 58.6456 128.318 59.2372 130.219 60.5803C132.121 61.9233 133.457 63.9227 133.971 66.1929C134.486 68.4631 134.141 70.8433 133.005 72.8746L121.53 93.3766C121.281 93.8212 120.936 94.2045 120.52 94.4986C120.104 94.7927 119.628 94.9902 119.126 95.0765C118.624 95.1629 118.109 95.1359 117.619 94.9977C117.128 94.8594 116.675 94.6133 116.292 94.2774V94.2774Z" fill="#2F2E41"/>
<path d="M120.11 50.2527C121.813 50.8564 123.9 51.3887 125.24 50.1366C126.548 48.9142 126.309 46.6788 125.539 45.032C124.768 43.3852 123.573 41.9197 123.207 40.1273C122.682 37.5584 124.04 34.8895 125.978 33.2147C127.916 31.5399 130.355 30.6601 132.737 29.8135L145.8 25.1699C149.033 24.0205 152.518 22.6703 154.327 19.6455C156.945 15.2687 154.552 9.01234 150.257 6.4584C145.962 3.90447 140.538 4.38025 135.904 6.17606C133.342 7.16928 130.904 8.53795 128.254 9.23712C123.023 10.617 117.076 9.3791 112.48 12.3283C108.478 14.8955 106.623 20.1337 106.757 25.035C106.892 29.9363 108.697 34.604 110.6 39.0865C111.733 41.7532 112.943 44.4507 114.861 46.5717C116.779 48.6928 119.551 50.1766 122.319 49.7863L120.11 50.2527Z" fill="#2F2E41"/>
<path d="M103.008 31.1448C111.4 31.1448 118.203 24.3416 118.203 15.9493C118.203 7.55703 111.4 0.753754 103.008 0.753754C94.6154 0.753754 87.8122 7.55703 87.8122 15.9493C87.8122 24.3416 94.6154 31.1448 103.008 31.1448Z" fill="#2F2E41"/>
<path d="M226.252 103.666L225.982 103.629L226.998 96.2416C227.154 95.1077 226.853 93.9582 226.161 93.0462C225.47 92.1341 224.444 91.5342 223.31 91.3783L207.659 89.2268C206.525 89.071 205.376 89.3719 204.464 90.0635C203.551 90.7551 202.951 91.7807 202.796 92.9147L197.225 133.442C197.069 134.576 197.37 135.725 198.061 136.637C198.753 137.549 199.779 138.149 200.912 138.305L216.563 140.456C217.697 140.612 218.847 140.311 219.759 139.62C220.671 138.928 221.271 137.902 221.427 136.768L225.259 108.887L225.529 108.924L226.252 103.666Z" fill="#3F3D56"/>
<path d="M222.818 93.5454L220.869 93.2776C220.929 93.5096 220.93 93.7527 220.873 93.9854C220.817 94.2181 220.704 94.4334 220.544 94.6121C220.385 94.7908 220.184 94.9276 219.959 95.0104C219.734 95.0932 219.493 95.1194 219.255 95.0868L210.703 93.9111C210.466 93.8785 210.24 93.788 210.046 93.6477C209.852 93.5073 209.695 93.3213 209.59 93.1062C209.485 92.8911 209.434 92.6534 209.442 92.414C209.451 92.1746 209.518 91.941 209.637 91.7336L207.817 91.4834C207.417 91.4284 207.011 91.4527 206.62 91.555C206.229 91.6572 205.863 91.8354 205.541 92.0794C205.219 92.3233 204.949 92.6282 204.745 92.9767C204.541 93.3251 204.408 93.7104 204.353 94.1103L199.047 132.71C198.936 133.518 199.15 134.337 199.643 134.986C200.136 135.636 200.866 136.063 201.674 136.174L216.674 138.236C217.482 138.347 218.301 138.133 218.951 137.64C219.6 137.148 220.028 136.417 220.139 135.609L225.445 97.0096C225.556 96.2018 225.341 95.3831 224.849 94.7334C224.356 94.0838 223.626 93.6564 222.818 93.5454V93.5454Z" fill="white"/>
<path d="M212.179 125.593C216.795 125.593 220.537 121.851 220.537 117.235C220.537 112.619 216.795 108.878 212.179 108.878C207.564 108.878 203.822 112.619 203.822 117.235C203.822 121.851 207.564 125.593 212.179 125.593Z" fill="#33909C"/>
<path d="M211.351 120.423C211.163 120.423 210.98 120.363 210.829 120.25L210.82 120.243L208.856 118.739C208.765 118.67 208.688 118.583 208.63 118.483C208.572 118.384 208.534 118.274 208.519 118.161C208.504 118.047 208.511 117.931 208.541 117.82C208.57 117.709 208.621 117.605 208.691 117.514C208.761 117.422 208.848 117.346 208.948 117.289C209.047 117.231 209.157 117.194 209.271 117.179C209.385 117.164 209.501 117.172 209.612 117.202C209.723 117.232 209.827 117.284 209.917 117.354L211.19 118.329L214.196 114.409C214.266 114.318 214.353 114.241 214.452 114.184C214.551 114.127 214.661 114.089 214.774 114.074C214.888 114.059 215.003 114.067 215.114 114.097C215.225 114.126 215.328 114.177 215.419 114.247L215.401 114.272L215.42 114.247C215.603 114.388 215.723 114.596 215.754 114.826C215.784 115.055 215.722 115.287 215.581 115.471L212.045 120.083C211.963 120.189 211.858 120.275 211.738 120.334C211.617 120.393 211.485 120.424 211.351 120.423Z" fill="white"/>
<path d="M643.096 294.246H5.421C5.18153 294.245 4.9521 294.15 4.78301 293.98C4.61393 293.811 4.51897 293.581 4.51897 293.341C4.51897 293.102 4.61393 292.872 4.78301 292.703C4.9521 292.533 5.18153 292.437 5.421 292.437H643.096C643.336 292.437 643.566 292.532 643.735 292.702C643.905 292.871 644 293.101 644 293.341C644 293.581 643.905 293.811 643.735 293.981C643.566 294.151 643.336 294.246 643.096 294.246Z" fill="#CCCCCC"/>
</g>
<defs>
<clipPath id="clip0_2_41">
<rect width="644" height="293.492" fill="white" transform="translate(0 0.753754)"/>
</clipPath>
</defs>
</svg>
