<svg xmlns="http://www.w3.org/2000/svg" xmlns:xlink="http://www.w3.org/1999/xlink" viewBox="0 0 49.99 61.11"><defs><style>.e175f08d-e82b-4858-9ee4-b08501bfdc45,.ec9b72f0-39b3-47ac-9988-2f403c0f3c99{stroke-miterlimit:10;}.ec9b72f0-39b3-47ac-9988-2f403c0f3c99{fill:url(#b75bd579-a377-48aa-ae81-5d43c67b4d21);stroke:url(#bb537641-30ff-4e3a-a271-25b82f83dac2);}.e175f08d-e82b-4858-9ee4-b08501bfdc45{fill:url(#ab250a79-6be3-4ffd-8db7-022f8499b7cf);stroke:url(#aa66d016-0b1e-4983-a99c-a0d9a4aead67);}.b0ffb22c-5e88-43c8-b81b-c3733c6f75e9{fill:url(#e1ebddbd-7c08-452b-83e7-6720d68d49d2);}</style><linearGradient id="b75bd579-a377-48aa-ae81-5d43c67b4d21" x1="16.11" y1="40.49" x2="16.32" y2="40.49" gradientUnits="userSpaceOnUse"><stop offset="0.02" stop-color="#ffee51"/><stop offset="0.26" stop-color="#f39a44"/><stop offset="0.41" stop-color="#ed6e3d"/><stop offset="0.71" stop-color="#eb5b3f"/><stop offset="0.93" stop-color="#ea5340"/></linearGradient><linearGradient id="bb537641-30ff-4e3a-a271-25b82f83dac2" x1="15.9" y1="40.96" x2="16.89" y2="39.97" xlink:href="#b75bd579-a377-48aa-ae81-5d43c67b4d21"/><linearGradient id="ab250a79-6be3-4ffd-8db7-022f8499b7cf" x1="10.43" y1="36.47" x2="49.49" y2="36.47" xlink:href="#b75bd579-a377-48aa-ae81-5d43c67b4d21"/><linearGradient id="aa66d016-0b1e-4983-a99c-a0d9a4aead67" x1="5.27" y1="51.63" x2="39.33" y2="17.57" xlink:href="#b75bd579-a377-48aa-ae81-5d43c67b4d21"/><linearGradient id="e1ebddbd-7c08-452b-83e7-6720d68d49d2" x1="40.47" y1="42.84" x2="7.01" y2="9.37" gradientUnits="userSpaceOnUse"><stop offset="0" stop-color="#46b4c8"/><stop offset="0.11" stop-color="#41acbf"/><stop offset="0.28" stop-color="#3496a7"/><stop offset="0.39" stop-color="#2a8695"/><stop offset="0.55" stop-color="#2e8a98"/><stop offset="0.71" stop-color="#3996a1"/><stop offset="0.87" stop-color="#4ca9af"/><stop offset="1" stop-color="#62c0c1"/></linearGradient></defs><g id="bff216b1-5b0d-47f1-bc2b-caffb27855ee" data-name="Calque 2"><g id="ec320089-51f5-4102-838b-e479998e75f8" data-name="Calque 1"><path class="ec9b72f0-39b3-47ac-9988-2f403c0f3c99" d="M16.29,40.55l0-.11S15.86,40.38,16.29,40.55Z"/><path class="e175f08d-e82b-4858-9ee4-b08501bfdc45" d="M49.27,30.12c-1.64-5.8-8.1-9.44-12.92-6.34-9,7.09-24.93,1.75-21.24-11.45a6.11,6.11,0,0,1-.71,1,22.94,22.94,0,0,0-3,5.59c-3.53,9.45,3.44,12.7,10.14,14.18,6.3,1.39,13.2,1.39,14.29,5.68,2.47,9.38-8,16.7-13.72,19.88,5.5-4,10.19-12.79,8.34-14.71-2.69-2.79-.13.34-8.1-1.7-4.11-1-5.58-1.49-6-1.67v0S7.34,56.06,14.69,60a5.24,5.24,0,0,0,4,.35C24.29,59.9,52.21,44.61,49.27,30.12Z"/><path class="b0ffb22c-5e88-43c8-b81b-c3733c6f75e9" d="M15,12.77C12.72,22,20,27.18,27.67,26.87c6-7.49,11-16.94,11.62-22.45s-8-4.31-8-4.31l-.41.08a2.56,2.56,0,0,1,.4-.08S-1.92,4.44.09,24.76C2.89,40.31,24.1,42.94,26.8,43c1.32.05,2.67.41,3.24,1.41,1.73,3.08-6.6,12.32-11.34,15.87,0,0,20.84-8.87,17.5-21.55-.72-2.73-4.2-4.61-8.79-4.94s-13.74-4.36-15.14-7.57-1.11-8,2.15-12.94q.36-.54.84-1.14l-.19.29v0Z"/></g></g></svg>